<svg width="90" height="78" viewBox="0 0 90 78" fill="none" xmlns="http://www.w3.org/2000/svg">
<path d="M88.0315 25.5518C87.0126 23.1302 85.3198 21.3843 83.1351 20.5048L83.1057 20.4938C82.1112 20.1045 81.0526 19.9052 79.9846 19.9063H79.8671C74.866 19.9816 69.7603 24.2318 67.1642 30.4832C65.2604 35.0546 65.0419 39.9713 66.5804 43.6358C67.5975 46.0592 69.2939 47.8052 71.4879 48.6846L71.5117 48.6938C72.5062 49.0831 73.5649 49.2824 74.6328 49.2813C79.6817 49.2813 84.8407 45.0311 87.4844 38.6971C89.3644 34.1312 89.5719 29.2182 88.0315 25.5518ZM68.0492 52.5144C65.1649 50.7813 62.4385 49.1418 60.6577 46.1969C55.7447 38.0454 52.7778 33.1251 44.999 33.1251C37.2201 33.1251 34.2459 38.0454 29.3219 46.1969C27.5374 49.1455 24.8055 50.7868 21.9121 52.5273C18.5945 54.5211 15.1668 56.581 13.6871 60.6348C13.1117 62.0961 12.8219 63.6541 12.8334 65.2246C12.8334 71.8248 17.974 77.1949 24.2896 77.1949C27.5484 77.1949 31.0165 76.0658 34.6865 74.8706C38.2152 73.7213 41.8632 72.5335 45.0173 72.5335C48.1715 72.5335 51.8103 73.7213 55.3261 74.8706C58.9888 76.0585 62.4404 77.1876 65.7083 77.1876C72.0148 77.1876 77.1462 71.8175 77.1462 65.2173C77.1514 63.6456 76.8554 62.0876 76.2742 60.6274C74.7944 56.57 71.3649 54.5082 68.0492 52.5144ZM25.538 26.6718C27.7228 29.4128 30.4951 30.9219 33.3444 30.9219C33.7334 30.9219 34.1219 30.893 34.5066 30.8357C40.4495 29.9618 44.1526 22.7098 42.9372 14.3122C42.4287 10.7817 41.0701 7.49355 39.124 5.05542C36.9429 2.31988 34.1669 0.812571 31.3194 0.812571C30.9304 0.812664 30.542 0.841506 30.1573 0.89886C24.2143 1.77277 20.5112 9.02472 21.7266 17.4223C22.2334 20.9473 23.5919 24.2318 25.538 26.6718ZM55.4932 30.8357C55.8779 30.893 56.2664 30.9219 56.6553 30.9219C59.5065 30.9219 62.277 29.4128 64.4618 26.6718C66.406 24.2318 67.7573 20.9473 68.2713 17.4186C69.4867 9.02472 65.7836 1.77277 59.8407 0.895188C59.456 0.837834 59.0675 0.808992 58.6785 0.808899C55.831 0.812571 53.0551 2.31988 50.874 5.05542C48.9279 7.49355 47.5693 10.7817 47.0626 14.3159C45.8472 22.7098 49.5503 29.9618 55.4932 30.8357ZM18.4862 48.6938L18.5119 48.6846C20.7022 47.8052 22.3967 46.0611 23.412 43.6395C24.9505 39.9676 24.7339 35.0565 22.8337 30.485C20.2028 24.1584 15.0457 19.9063 10.0023 19.9063C8.93434 19.9048 7.87558 20.1041 6.88124 20.4938L6.85554 20.503C4.67078 21.3751 2.9762 23.1266 1.96093 25.5482C0.422416 29.22 0.639056 34.1312 2.53925 38.7027C5.17015 45.0293 10.3273 49.2813 15.3706 49.2813C16.4368 49.2822 17.4936 49.0829 18.4862 48.6938Z" fill="#D3D3D3"/>
</svg>
