<svg width="366" height="50" viewBox="0 0 366 50" fill="none" xmlns="http://www.w3.org/2000/svg">
<path d="M52.619 1.30358V47.9941H40.7262V24.4286L31.9167 47.9941H21.125L12.0952 24.4286V47.9941H0.202381V1.30358H14.5179L26.4107 32.1369L38.3036 1.30358H52.619ZM96.4464 7.25001C101.071 11.6548 103.274 17.6012 103.274 24.6488C103.274 31.6964 100.851 37.4226 96.4464 42.0476C91.8214 46.4524 86.0952 48.875 79.0476 48.875C72 48.875 66.2738 46.6726 61.6488 42.0476C57.0238 37.4226 54.8214 31.6964 54.8214 24.8691C54.8214 17.8214 57.244 12.0952 61.6488 7.69049C66.2738 3.06549 72 0.863107 79.0476 0.863107C85.875 0.642869 91.8214 2.84525 96.4464 7.25001ZM91.6012 24.6488C91.6012 20.6845 90.5 17.381 88.0774 14.7381C85.6548 12.0952 82.7917 10.9941 78.8274 10.9941C75.0833 10.9941 72 12.3155 69.7976 14.7381C67.5952 17.381 66.2738 20.6845 66.2738 24.6488C66.2738 28.6131 67.375 31.9167 69.7976 34.5595C72.2202 37.2024 75.0833 38.3036 78.8274 38.3036C82.5714 38.3036 85.6548 36.9822 88.0774 34.5595C90.2798 31.9167 91.6012 28.6131 91.6012 24.6488ZM140.274 31.4762L139.833 32.3572C138.952 34.1191 137.631 35.6607 135.869 36.7619C134.107 37.8631 132.125 38.5238 130.143 38.5238C126.399 38.5238 123.315 37.2024 120.673 34.5595C118.25 31.9167 116.929 28.6131 116.929 24.6488C116.929 20.6845 118.25 17.381 120.673 14.7381C123.095 12.0952 126.179 10.7738 130.143 10.7738C132.125 10.7738 134.107 11.4345 135.869 12.5357C137.631 13.6369 138.952 15.1786 139.833 16.9405L140.274 17.8214L150.185 12.9762L149.744 12.0952C145.56 4.60715 138.952 0.642869 130.143 0.642869C123.095 0.642869 117.149 2.84525 112.524 7.47025C107.899 11.875 105.476 17.8214 105.476 24.8691C105.476 31.9167 107.899 37.6429 112.524 42.2679C117.149 46.6726 123.095 49.0952 130.143 49.0952C138.732 49.0952 145.339 45.131 149.744 37.6429L150.185 36.7619L140.274 31.4762ZM175.512 23.3274L194.012 1.30358H179.696L165.381 19.5833V1.30358H153.929V47.9941H165.381V33.6786L167.804 30.5952L181.018 47.9941H195.113L175.512 23.3274ZM237.179 35C237.179 38.7441 235.857 41.8274 233.435 44.25C231.012 46.6726 227.488 47.9941 223.083 47.9941H197.976V1.30358H222.423C226.827 1.30358 230.131 2.40477 232.554 4.82739C234.976 7.25001 236.298 10.1131 236.298 13.6369C236.298 16.5 235.417 19.1429 233.875 21.125C232.994 22.2262 231.893 23.1072 230.571 23.7679C232.113 24.4286 233.214 25.5298 234.536 26.8512C236.298 29.2738 237.179 31.9167 237.179 35ZM224.625 15.3988C224.625 14.2976 224.185 13.1964 223.524 12.5357C222.643 11.875 221.762 11.4345 220.44 11.4345H209.429V19.3631H220.44C221.762 19.3631 222.863 18.9226 223.524 18.2619C224.405 17.381 224.625 16.5 224.625 15.3988ZM209.429 37.8631H220.661C222.202 37.8631 223.304 37.4226 224.185 36.7619C225.065 36.1012 225.506 35 225.506 33.6786C225.506 32.3572 225.065 31.4762 224.185 30.5952C223.304 29.7143 222.202 29.2738 220.661 29.2738H209.429V37.8631ZM286.292 47.9941H273.298L270.655 40.506H252.815L249.952 47.9941H236.958L255.018 1.30358H268.232L286.292 47.9941ZM267.351 30.1548L261.625 14.7381L255.899 30.1548H267.351ZM365.798 28.3929V38.7441H360.071V47.9941H348.619V38.7441H327.256V29.9345L345.536 1.30358H360.071V28.3929H365.798ZM348.619 28.3929V13.8572L339.149 28.3929H348.619ZM325.274 37.8631V47.9941H289.815V38.3036L290.256 38.0833C290.476 38.0833 303.03 29.0536 310.077 23.9881C312.94 22.006 314.482 19.8036 314.482 17.6012C314.482 13.8572 311.399 10.7738 307.435 10.7738C303.03 10.7738 300.387 14.5179 299.506 16.5L290.036 11.875C292.018 7.47025 297.744 0.202393 307.655 0.202393C317.345 0.202393 325.274 8.13096 325.274 17.8214C325.274 23.3274 321.75 28.8333 316.024 32.5774C312.28 35.2202 309.637 36.7619 308.095 37.8631H325.274Z" fill="#252525"/>
</svg>
