<svg width="20" height="20" viewBox="0 0 20 20" fill="none" xmlns="http://www.w3.org/2000/svg">
<path d="M9.25 0C5.031 0.004 2.849 0.08 1.464 1.464C0.08 2.85 0.004 5.031 0 9.25H4.914C4.55477 8.801 4.29657 8.27982 4.157 7.722C3.62 5.57 5.57 3.62 7.722 4.157C8.294 4.3 8.812 4.563 9.25 4.914V0ZM0 10.75C0.004 14.968 0.08 17.15 1.464 18.535C2.85 19.92 5.031 19.995 9.25 20V12.123C8.85556 12.9125 8.24899 13.5764 7.49831 14.0404C6.74762 14.5044 5.88251 14.7502 5 14.75C4.80109 14.75 4.61032 14.671 4.46967 14.5303C4.32902 14.3897 4.25 14.1989 4.25 14C4.25 13.8011 4.32902 13.6103 4.46967 13.4697C4.61032 13.329 4.80109 13.25 5 13.25C5.73167 13.2502 6.44199 13.0034 7.016 12.5497C7.59002 12.096 7.99415 11.4619 8.163 10.75H0ZM10.75 20C14.968 19.995 17.15 19.92 18.535 18.535C19.92 17.151 19.995 14.968 20 10.75H11.837C12.0058 11.4619 12.41 12.096 12.984 12.5497C13.558 13.0034 14.2683 13.2502 15 13.25C15.1989 13.25 15.3897 13.329 15.5303 13.4697C15.671 13.6103 15.75 13.8011 15.75 14C15.75 14.1989 15.671 14.3897 15.5303 14.5303C15.3897 14.671 15.1989 14.75 15 14.75C14.1175 14.7502 13.2524 14.5044 12.5017 14.0404C11.751 13.5764 11.1444 12.9125 10.75 12.123V20ZM20 9.25C19.995 5.031 19.92 2.849 18.535 1.464C17.151 0.08 14.968 0.004 10.75 0V4.914C11.1987 4.5549 11.7195 4.29671 12.277 4.157C14.43 3.619 16.381 5.569 15.842 7.722C15.7027 8.27974 15.4449 8.80091 15.086 9.25H20Z" fill="#252525"/>
</svg>
