<svg width="20" height="20" viewBox="0 0 20 20" fill="none" xmlns="http://www.w3.org/2000/svg">
<path fill-rule="evenodd" clip-rule="evenodd" d="M10 1.52589e-05C11.3132 9.10317e-06 12.6136 0.258662 13.8268 0.761205C15.0401 1.26375 16.1425 2.00034 17.0711 2.92893C17.9997 3.85751 18.7363 4.9599 19.2388 6.17316C19.7414 7.38642 20 8.68678 20 10C20 15.5229 15.5229 20 10 20C4.47719 20 1.52588e-05 15.5229 1.52588e-05 10C1.52588e-05 4.47719 4.47719 1.52589e-05 10 1.52589e-05ZM11 11H9.00002C6.52431 11 4.39886 12.4994 3.48212 14.6398C4.93262 16.6737 7.31144 18 10 18C12.6886 18 15.0674 16.6737 16.5179 14.6396C15.6012 12.4994 13.4757 11 11 11ZM10 3.00002C8.34316 3.00002 7 4.34317 7 6.00002C7 7.65686 8.34316 9.00002 10 9.00002C11.6568 9.00002 13 7.65686 13 6.00002C13 4.34317 11.6569 3.00002 10 3.00002Z" fill="#252525"/>
</svg>
